<?xml version="1.0" standalone="no"?>
<!DOCTYPE svg PUBLIC "-//W3C//DTD SVG 20010904//EN"
 "http://www.w3.org/TR/2001/REC-SVG-20010904/DTD/svg10.dtd">
<svg version="1.0" xmlns="http://www.w3.org/2000/svg"
 width="300.000000pt" height="300.000000pt" viewBox="0 0 300.000000 300.000000"
 preserveAspectRatio="xMidYMid meet">
<metadata>
Created by potrace 1.14, written by Peter Selinger 2001-2017
</metadata>
<g transform="translate(0.000000,300.000000) scale(0.100000,-0.100000)"
fill="#000000" stroke="none">
<path d="M0 1500 l0 -1500 433 0 433 0 34 45 c19 25 37 45 42 45 4 0 8 6 8 14
0 8 22 40 50 72 27 31 52 66 56 77 3 11 16 30 28 43 20 21 65 73 86 101 6 7
10 19 10 28 0 8 5 15 10 15 6 0 18 17 27 37 21 45 52 83 69 83 7 0 15 13 19
30 4 16 11 30 16 30 5 0 9 9 9 20 0 46 48 109 106 140 16 9 30 26 32 38 2 12
10 22 18 22 8 0 27 13 42 29 15 16 41 32 58 35 31 7 62 31 63 51 1 6 7 10 14
10 6 0 11 -6 9 -13 -4 -23 26 -12 51 18 16 19 35 30 51 30 26 0 48 -21 28 -28
-7 -2 -19 -10 -26 -18 -17 -16 -7 -64 18 -89 19 -20 76 -32 76 -16 0 6 -4 11
-10 11 -5 0 -10 7 -10 15 0 19 5 19 34 0 23 -15 56 -11 56 7 0 5 6 8 13 7 6
-1 20 1 29 5 23 10 54 3 50 -12 -3 -15 14 -16 23 -2 4 6 11 8 16 5 5 -4 9 -1
9 4 0 18 27 12 35 -6 6 -17 7 -17 16 0 6 9 14 15 20 12 12 -8 12 8 -1 21 -17
17 -2 39 35 53 19 7 35 17 35 22 0 12 70 12 89 0 18 -12 41 -3 41 15 0 8 5 14
10 14 6 0 10 -4 10 -9 0 -19 35 -22 48 -4 11 15 14 16 22 4 6 -11 12 -12 22
-4 25 20 75 23 109 6 24 -12 34 -13 37 -5 7 23 55 11 102 -25 8 -6 33 -16 55
-22 22 -6 56 -24 75 -41 19 -16 40 -34 47 -40 7 -5 16 -10 21 -10 5 0 17 -9
26 -19 9 -10 28 -21 42 -24 l24 -4 0 118 c0 73 -4 119 -10 119 -5 0 -10 7 -10
15 0 8 5 15 10 15 7 0 10 325 10 955 l0 955 -1500 0 -1500 0 0 -1500z m150
1410 c0 -5 -4 -10 -10 -10 -5 0 -10 5 -10 10 0 6 5 10 10 10 6 0 10 -4 10 -10z
m61 -123 c-1 -12 -15 -9 -19 4 -3 6 1 10 8 8 6 -3 11 -8 11 -12z m2751 -12 c0
-5 -5 -11 -11 -13 -6 -2 -11 4 -11 13 0 9 5 15 11 13 6 -2 11 -8 11 -13z
m-302 -415 c0 -5 -4 -10 -10 -10 -5 0 -10 5 -10 10 0 6 5 10 10 10 6 0 10 -4
10 -10z m180 -40 c0 -5 -2 -10 -4 -10 -3 0 -8 5 -11 10 -3 6 -1 10 4 10 6 0
11 -4 11 -10z m-410 -204 c0 -3 -4 -8 -10 -11 -5 -3 -10 -1 -10 4 0 6 5 11 10
11 6 0 10 -2 10 -4z m410 -56 c0 -5 -4 -10 -10 -10 -5 0 -10 5 -10 10 0 6 5
10 10 10 6 0 10 -4 10 -10z m70 -86 c0 -17 -22 -14 -28 4 -2 7 3 12 12 12 9 0
16 -7 16 -16z m-2220 -4 c0 -5 -5 -10 -11 -10 -5 0 -7 5 -4 10 3 6 8 10 11 10
2 0 4 -4 4 -10z m1115 -29 c74 -34 115 -95 115 -172 l0 -39 -74 0 c-77 0 -86
5 -86 51 0 19 -9 19 -287 17 l-288 -3 -3 -102 -3 -103 301 0 c242 0 306 -3
329 -14 36 -19 99 -89 107 -120 3 -13 4 -83 2 -154 -3 -144 -11 -164 -78 -209
-27 -19 -47 -23 -110 -23 -64 0 -80 -3 -95 -20 -10 -11 -24 -20 -32 -20 -7 0
-21 -18 -30 -40 -10 -22 -23 -40 -30 -40 -6 0 -18 -8 -25 -18 -7 -10 -21 -21
-30 -25 -10 -3 -18 -16 -18 -27 0 -11 -7 -20 -15 -20 -7 0 -18 -8 -24 -17 -5
-10 -13 -14 -17 -10 -12 12 9 60 31 72 47 24 75 49 75 65 0 10 7 23 16 31 8 7
22 25 30 41 l15 28 -211 0 c-189 0 -215 2 -248 19 -53 28 -83 78 -89 150 l-6
61 62 0 c67 0 87 -11 93 -51 2 -15 9 -24 21 -23 9 0 139 1 287 2 l271 2 -3
103 -3 102 -310 5 c-301 5 -311 6 -341 27 -56 40 -72 91 -73 233 -1 112 1 130
21 170 17 33 35 51 68 68 43 21 53 22 345 22 271 0 304 -2 340 -19z m950 0
c45 -20 102 -79 111 -115 3 -12 4 -98 2 -189 -3 -185 -9 -201 -78 -238 -32
-17 -62 -19 -342 -19 l-308 0 0 -155 0 -155 -74 0 c-58 0 -75 3 -80 16 -8 21
-8 859 1 867 3 4 169 7 367 7 328 0 365 -2 401 -19z m-2487 3 l22 -6 0 -359 0
-359 358 0 c265 0 361 -3 370 -12 7 -7 12 -39 12 -75 l0 -63 -440 0 c-412 0
-440 1 -441 18 -1 9 -1 197 0 417 1 220 1 410 1 423 0 20 5 22 48 22 26 0 57
-3 70 -6z m2122 -589 c0 -8 -4 -15 -9 -15 -13 0 -22 16 -14 24 11 11 23 6 23
-9z m-40 -10 c0 -8 -4 -15 -10 -15 -5 0 -10 7 -10 15 0 8 5 15 10 15 6 0 10
-7 10 -15z m-123 -21 c-9 -9 -28 6 -21 18 4 6 10 6 17 -1 6 -6 8 -13 4 -17z
m293 -54 c12 -7 11 -10 -5 -16 -11 -4 -24 -12 -28 -18 -6 -8 -10 -7 -14 2 -2
6 -11 12 -19 12 -8 0 -11 6 -8 15 7 17 51 20 74 5z m-1130 -15 c0 -8 -7 -15
-15 -15 -8 0 -15 7 -15 15 0 8 7 15 15 15 8 0 15 -7 15 -15z m810 -100 c0 -9
-6 -12 -15 -9 -8 4 -12 10 -9 15 8 14 24 10 24 -6z m270 -54 c0 -14 -23 -27
-52 -30 -32 -3 -40 24 -10 32 30 8 62 7 62 -2z m490 -26 c0 -8 -7 -15 -15 -15
-8 0 -15 7 -15 15 0 8 7 15 15 15 8 0 15 -7 15 -15z m-30 -61 c0 -11 -22 -24
-40 -24 -4 0 -6 9 -3 20 3 11 9 20 14 20 5 0 6 8 2 18 -5 14 -3 13 10 -3 9
-11 17 -25 17 -31z m-955 25 c10 -15 -1 -23 -20 -15 -9 3 -13 10 -10 16 8 13
22 13 30 -1z m-1125 -19 c0 -5 -5 -10 -11 -10 -5 0 -7 5 -4 10 3 6 8 10 11 10
2 0 4 -4 4 -10z m2042 -40 c10 0 10 -2 -1 -9 -7 -5 -10 -14 -6 -21 6 -9 3 -9
-15 0 -13 7 -19 17 -16 27 3 8 6 22 7 31 0 12 3 10 9 -5 5 -13 15 -23 22 -23z
m83 29 c10 -15 -1 -23 -20 -15 -9 3 -13 10 -10 16 8 13 22 13 30 -1z m-45 -59
c0 -5 -2 -10 -4 -10 -3 0 -8 5 -11 10 -3 6 -1 10 4 10 6 0 11 -4 11 -10z
m-800 -10 c0 -5 -4 -10 -10 -10 -5 0 -10 5 -10 10 0 6 5 10 10 10 6 0 10 -4
10 -10z m-1930 -666 c0 -8 -4 -12 -10 -9 -5 3 -10 10 -10 16 0 5 5 9 10 9 6 0
10 -7 10 -16z m670 0 c0 -9 -5 -14 -12 -12 -18 6 -21 28 -4 28 9 0 16 -7 16
-16z m-49 -7 c-1 -12 -15 -9 -19 4 -3 6 1 10 8 8 6 -3 11 -8 11 -12z m-343
-29 c-5 -34 -38 -37 -38 -4 0 20 5 26 21 26 15 0 20 -5 17 -22z"/>
<path d="M2140 1665 l0 -135 278 0 c203 0 281 3 290 12 8 8 12 53 12 135 l0
123 -290 0 -290 0 0 -135z m566 84 c10 -17 -13 -36 -27 -22 -12 12 -4 33 11
33 5 0 12 -5 16 -11z"/>
<path d="M2165 940 c-19 -8 -19 -9 3 -9 12 -1 22 4 22 9 0 6 -1 10 -2 9 -2 0
-12 -4 -23 -9z"/>
<path d="M2200 940 c0 -5 5 -10 11 -10 5 0 7 5 4 10 -3 6 -8 10 -11 10 -2 0
-4 -4 -4 -10z"/>
<path d="M1660 880 c0 -5 5 -10 10 -10 6 0 10 5 10 10 0 6 -4 10 -10 10 -5 0
-10 -4 -10 -10z"/>
<path d="M1690 815 c-7 -9 -10 -18 -7 -21 3 -3 10 4 17 15 13 25 8 27 -10 6z"/>
<path d="M1870 810 c0 -5 5 -10 11 -10 5 0 7 5 4 10 -3 6 -8 10 -11 10 -2 0
-4 -4 -4 -10z"/>
<path d="M1405 695 c2 -20 6 -39 9 -42 3 -3 4 11 3 30 -2 20 -6 39 -9 43 -3 3
-5 -11 -3 -31z"/>
<path d="M1928 698 c2 -10 6 -18 7 -18 1 0 5 8 7 18 3 11 0 19 -7 19 -7 0 -10
-8 -7 -19z"/>
</g>
</svg>
